<svg version="1.2" xmlns="http://www.w3.org/2000/svg" viewBox="0 0 32 32" width="32" height="32">
	<title>icon-twitter-X-svg</title>
	<style>
		.s0 { fill: #065695 } 
	</style>
	<path id="Layer" fill-rule="evenodd" class="s0" d="m22.1 1.2c2 0.8 3.7 2 5.2 3.5 1.5 1.5 2.7 3.2 3.5 5.2 0.8 1.9 1.2 4 1.2 6.1 0 6.5-3.9 12.3-9.9 14.8-6 2.5-12.8 1.1-17.4-3.5-4.6-4.6-6-11.4-3.5-17.4 2.5-6 8.3-9.9 14.8-9.9 2.1 0 4.2 0.4 6.1 1.2zm3.7 23.7l-7.8-10.2 6.4-7.5h-2.7l-5 5.8-4.4-5.9h-6.1l7.4 9.6-7 8.2h2.8l5.4-6.5 5 6.5z"/>
	<path id="Layer" class="s0" d="m15.6 14.3l-4.2-5.5h-1.8l5.1 6.6 1.3 1.7 4.6 6h1.6l-5.3-7-1.3-1.8z"/>
</svg>