<svg version="1.2" xmlns="http://www.w3.org/2000/svg" viewBox="0 0 32 32" width="32" height="32">
	<title>SPOTIFY-svg</title>
	<style>
		.s0 { fill: #065695 } 
	</style>
	<path id="Layer" fill-rule="evenodd" class="s0" d="m22.1 1.2c2 0.8 3.7 2 5.2 3.5 1.5 1.5 2.7 3.2 3.5 5.2 0.8 1.9 1.2 4 1.2 6.1 0 6.5-3.9 12.3-9.9 14.8-6 2.5-12.8 1.1-17.4-3.5-4.6-4.6-6-11.4-3.5-17.4 2.5-6 8.3-9.9 14.8-9.9 2.1 0 4.2 0.4 6.1 1.2zm1.4 21.5q0-0.2 0-0.4-0.1-0.2-0.2-0.3-0.1-0.2-0.3-0.3c-4.2-2.6-9.4-3.2-15.5-1.8q-0.4 0.1-0.6 0.5-0.2 0.3-0.2 0.7 0.1 0.4 0.5 0.6 0.3 0.2 0.7 0.2c5.6-1.3 10.3-0.8 14.1 1.5q0.1 0.1 0.3 0.1 0.2 0.1 0.4 0 0.2 0 0.4-0.1 0.1-0.2 0.2-0.3 0.1-0.2 0.2-0.4zm1.8-4q0.1-0.2 0.2-0.4 0-0.3 0-0.5-0.1-0.3-0.2-0.5-0.2-0.2-0.4-0.3-2-1.1-4.2-1.9-2.3-0.7-4.6-1-2.3-0.2-4.6-0.1-2.3 0.2-4.6 0.9c-0.3 0.1-0.6 0.3-0.7 0.6-0.2 0.3-0.2 0.6-0.1 0.9 0.1 0.3 0.3 0.6 0.6 0.8 0.3 0.1 0.6 0.2 0.9 0.1q2-0.6 4.1-0.8 2.1-0.1 4.1 0.1 2.1 0.2 4 0.9 2 0.6 3.8 1.6 0.2 0.2 0.5 0.2 0.2 0 0.5 0 0.2-0.1 0.4-0.2 0.2-0.2 0.3-0.4zm0.2-4.5c0.4 0.2 0.8 0.3 1.2 0.2 0.4-0.1 0.8-0.3 1-0.7 0.2-0.3 0.2-0.8 0.1-1.2-0.1-0.4-0.4-0.7-0.8-0.9-6-3.5-15.3-3.9-21-2.1-0.3 0.1-0.6 0.4-0.8 0.7-0.2 0.4-0.2 0.8-0.1 1.2 0.1 0.3 0.4 0.6 0.7 0.8 0.4 0.2 0.8 0.2 1.2 0.1 4.9-1.5 13.4-1.2 18.5 1.9z"/>
</svg>